<svg width="34" height="33" viewBox="0 0 34 33" fill="none" xmlns="http://www.w3.org/2000/svg">
    <path d="M1 11.3235H33V10.3235H1V11.3235ZM7.35718 -1.92756e-06L7.35715 7.29412L8.35715 7.29412L8.35718 1.92756e-06L7.35718 -1.92756e-06ZM25.6429 -1.97239e-06L25.6429 7.29412L26.6429 7.29412L26.6429 1.97239e-06L25.6429 -1.97239e-06ZM3.28573 32.5H30.7143V31.5H3.28573V32.5ZM30.7143 32.5C32.2664 32.5 33.5 31.209 33.5 29.6471H32.5C32.5 30.6842 31.687 31.5 30.7143 31.5V32.5ZM33.5 29.6471V6.11765H32.5V29.6471H33.5ZM33.5 6.11765C33.5 4.55579 32.2664 3.26471 30.7143 3.26471V4.26471C31.687 4.26471 32.5 5.08054 32.5 6.11765H33.5ZM30.7143 3.26471H3.28573V4.26471H30.7143V3.26471ZM3.28573 3.26471C1.73366 3.26471 0.500014 4.55578 0.500014 6.11765H1.50001C1.50001 5.08054 2.31307 4.26471 3.28573 4.26471V3.26471ZM0.500014 6.11765V29.6471H1.50001V6.11765H0.500014ZM0.500014 29.6471C0.500014 31.209 1.73366 32.5 3.28573 32.5V31.5C2.31307 31.5 1.50001 30.6842 1.50001 29.6471H0.500014ZM5.1143 14.8529H10.6V13.8529H5.1143V14.8529ZM10.7857 15.0588V18.3529H11.7857V15.0588H10.7857ZM10.6 18.5588H5.1143V19.5588H10.6V18.5588ZM4.92858 18.3529V15.0588H3.92858V18.3529H4.92858ZM5.1143 18.5588C5.0253 18.5588 4.92858 18.4804 4.92858 18.3529H3.92858C3.92858 19.0052 4.44588 19.5588 5.1143 19.5588V18.5588ZM10.7857 18.3529C10.7857 18.4804 10.689 18.5588 10.6 18.5588V19.5588C11.2684 19.5588 11.7857 19.0052 11.7857 18.3529H10.7857ZM10.6 14.8529C10.689 14.8529 10.7857 14.9314 10.7857 15.0588H11.7857C11.7857 14.4066 11.2684 13.8529 10.6 13.8529V14.8529ZM5.1143 13.8529C4.44588 13.8529 3.92858 14.4066 3.92858 15.0588H4.92858C4.92858 14.9314 5.0253 14.8529 5.1143 14.8529V13.8529ZM14.2572 14.8529H19.7429V13.8529H14.2572V14.8529ZM19.9286 15.0588V18.3529H20.9286V15.0588H19.9286ZM19.7429 18.5588H14.2572V19.5588H19.7429V18.5588ZM14.0714 18.3529V15.0588H13.0714V18.3529H14.0714ZM14.2572 18.5588C14.1681 18.5588 14.0714 18.4804 14.0714 18.3529H13.0714C13.0714 19.0052 13.5887 19.5588 14.2572 19.5588V18.5588ZM19.9286 18.3529C19.9286 18.4804 19.8319 18.5588 19.7429 18.5588V19.5588C20.4113 19.5588 20.9286 19.0052 20.9286 18.3529H19.9286ZM19.7429 14.8529C19.8319 14.8529 19.9286 14.9314 19.9286 15.0588H20.9286C20.9286 14.4066 20.4113 13.8529 19.7429 13.8529V14.8529ZM14.2572 13.8529C13.5887 13.8529 13.0714 14.4066 13.0714 15.0588H14.0714C14.0714 14.9314 14.1681 14.8529 14.2572 14.8529V13.8529ZM23.4 14.8529H28.8857V13.8529H23.4V14.8529ZM29.0714 15.0588V18.3529H30.0714V15.0588H29.0714ZM28.8857 18.5588H23.4V19.5588H28.8857V18.5588ZM23.2143 18.3529V15.0588H22.2143V18.3529H23.2143ZM23.4 18.5588C23.311 18.5588 23.2143 18.4804 23.2143 18.3529H22.2143C22.2143 19.0052 22.7316 19.5588 23.4 19.5588V18.5588ZM29.0714 18.3529C29.0714 18.4804 28.9747 18.5588 28.8857 18.5588V19.5588C29.5541 19.5588 30.0714 19.0052 30.0714 18.3529H29.0714ZM28.8857 14.8529C28.9747 14.8529 29.0714 14.9314 29.0714 15.0588H30.0714C30.0714 14.4066 29.5541 13.8529 28.8857 13.8529V14.8529ZM23.4 13.8529C22.7316 13.8529 22.2143 14.4066 22.2143 15.0588H23.2143C23.2143 14.9314 23.311 14.8529 23.4 14.8529V13.8529ZM5.1143 21.9118H10.6V20.9118H5.1143V21.9118ZM10.7857 22.1176V25.4118H11.7857V22.1176H10.7857ZM10.6 25.6176H5.1143V26.6176H10.6V25.6176ZM4.92858 25.4118V22.1176H3.92858V25.4118H4.92858ZM5.1143 25.6176C5.0253 25.6176 4.92858 25.5392 4.92858 25.4118H3.92858C3.92858 26.064 4.44588 26.6176 5.1143 26.6176V25.6176ZM10.7857 25.4118C10.7857 25.5392 10.689 25.6176 10.6 25.6176V26.6176C11.2684 26.6176 11.7857 26.064 11.7857 25.4118H10.7857ZM10.6 21.9118C10.689 21.9118 10.7857 21.9902 10.7857 22.1176H11.7857C11.7857 21.4654 11.2684 20.9118 10.6 20.9118V21.9118ZM5.1143 20.9118C4.44588 20.9118 3.92858 21.4654 3.92858 22.1176H4.92858C4.92858 21.9902 5.0253 21.9118 5.1143 21.9118V20.9118ZM14.2572 21.9118H19.7429V20.9118H14.2572V21.9118ZM19.9286 22.1176V25.4118H20.9286V22.1176H19.9286ZM19.7429 25.6176H14.2572V26.6176H19.7429V25.6176ZM14.0714 25.4118V22.1176H13.0714V25.4118H14.0714ZM14.2572 25.6176C14.1681 25.6176 14.0714 25.5392 14.0714 25.4118H13.0714C13.0714 26.064 13.5887 26.6176 14.2572 26.6176V25.6176ZM19.9286 25.4118C19.9286 25.5392 19.8319 25.6176 19.7429 25.6176V26.6176C20.4113 26.6176 20.9286 26.064 20.9286 25.4118H19.9286ZM19.7429 21.9118C19.8319 21.9118 19.9286 21.9902 19.9286 22.1176H20.9286C20.9286 21.4654 20.4113 20.9118 19.7429 20.9118V21.9118ZM14.2572 20.9118C13.5887 20.9118 13.0714 21.4654 13.0714 22.1176H14.0714C14.0714 21.9902 14.1681 21.9118 14.2572 21.9118V20.9118Z" fill="white"/>
</svg>
