<svg width="37" height="37" viewBox="0 0 37 37" fill="none" xmlns="http://www.w3.org/2000/svg">
    <path d="M21 14.9999V14.4999V18.4999M19 14.9999V14.4999V18.4999M17 18.5L23 18.5V13.5C23 13.5 25.5 13.5 25.5 11.5C25.5 11.5 25.5 9.99983 24 9.49983C22.5 8.99983 22 9.99995 22 9.99995C22 9.99995 21.5 8.99988 20 8.99988C18.5 8.99988 18 9.99988 18 9.99988C17 8.49989 14.5 9.35805 14.5 11.5C14.5 13.7436 17 13.5 17 13.5V18.5Z" stroke="black" stroke-linejoin="round"/>
    <path d="M6 1.00035L5.97061 35.9995M33 2.00041V35.0004C33 35.5527 32.5523 36.0004 32 36.0004L2 36C1.44772 36 1 35.5523 1 35V2C1 1.44772 1.44772 1 2 1L32 1.00041C32.5523 1.00041 33 1.44812 33 2.00041ZM33 2.00041L34.8 2C35.4627 2 36 2.44772 36 3V6C36 6.55229 35.4627 7 34.8 7L33 7.00041M33 10.0004L34.8 10C35.4627 10 36 10.4477 36 11V14C36 14.5523 35.4627 15 34.8 15L33 15.0004M33 18.0004L34.8 18C35.4627 18 36 18.4477 36 19V22C36 22.5523 35.4627 23 34.8 23L33 23.0004" stroke="black" stroke-width="2"/>
    <path d="M12 23.4999H12.5C12.5 23.2237 12.2761 22.9999 12 22.9999V23.4999ZM10 23.4999V22.9999C9.72386 22.9999 9.5 23.2237 9.5 23.4999H10ZM12 25.4999V25.9999C12.2761 25.9999 12.5 25.776 12.5 25.4999H12ZM14 23.4999V22.9999C13.7239 22.9999 13.5 23.2237 13.5 23.4999H14ZM14 27.4999H13.5C13.5 27.776 13.7239 27.9999 14 27.9999V27.4999ZM28 23.4999V22.9999C27.7239 22.9999 27.5 23.2237 27.5 23.4999H28ZM28 27.4999H27.5C27.5 27.776 27.7239 27.9999 28 27.9999V27.4999ZM18 23.4999V22.9999C17.7239 22.9999 17.5 23.2237 17.5 23.4999H18ZM18 27.4999H17.5C17.5 27.776 17.7239 27.9999 18 27.9999V27.4999ZM26 23.4999H26.5C26.5 23.2237 26.2761 22.9999 26 22.9999V23.4999ZM24 23.4999V22.9999C23.7239 22.9999 23.5 23.2237 23.5 23.4999H24ZM26 25.4999V25.9999C26.2761 25.9999 26.5 25.776 26.5 25.4999H26ZM11.5528 27.7235C11.6763 27.9705 11.9766 28.0706 12.2236 27.9471C12.4706 27.8236 12.5707 27.5233 12.4472 27.2763L11.5528 27.7235ZM9.5 27.4999C9.5 27.776 9.72386 27.9999 10 27.9999C10.2761 27.9999 10.5 27.776 10.5 27.4999H9.5ZM16 27.9999C16.2761 27.9999 16.5 27.776 16.5 27.4999C16.5 27.2237 16.2761 26.9999 16 26.9999V27.9999ZM15.5 25.9999C15.7761 25.9999 16 25.776 16 25.4999C16 25.2237 15.7761 24.9999 15.5 24.9999V25.9999ZM16 23.9999C16.2761 23.9999 16.5 23.776 16.5 23.4999C16.5 23.2237 16.2761 22.9999 16 22.9999V23.9999ZM20 23.9999C20.2761 23.9999 20.5 23.776 20.5 23.4999C20.5 23.2237 20.2761 22.9999 20 22.9999V23.9999ZM20 27.9999C20.2761 27.9999 20.5 27.776 20.5 27.4999C20.5 27.2237 20.2761 26.9999 20 26.9999V27.9999ZM22.5 23.4999C22.5 23.2237 22.2761 22.9999 22 22.9999C21.7239 22.9999 21.5 23.2237 21.5 23.4999H22.5ZM21.5 27.4999C21.5 27.776 21.7239 27.9999 22 27.9999C22.2761 27.9999 22.5 27.776 22.5 27.4999H21.5ZM23.5 27.4999C23.5 27.776 23.7239 27.9999 24 27.9999C24.2761 27.9999 24.5 27.776 24.5 27.4999H23.5ZM30 23.9999C30.2761 23.9999 30.5 23.776 30.5 23.4999C30.5 23.2237 30.2761 22.9999 30 22.9999V23.9999ZM29.75 25.9999C30.0261 25.9999 30.25 25.776 30.25 25.4999C30.25 25.2237 30.0261 24.9999 29.75 24.9999V25.9999ZM30 27.9999C30.2761 27.9999 30.5 27.776 30.5 27.4999C30.5 27.2237 30.2761 26.9999 30 26.9999V27.9999ZM12 22.9999H10V23.9999H12V22.9999ZM10 25.9999H12V24.9999H10V25.9999ZM12.5 25.4999V23.4999H11.5V25.4999H12.5ZM9.5 23.4999V25.4999H10.5V23.4999H9.5ZM13.5 23.4999V25.4999H14.5V23.4999H13.5ZM13.5 25.4999V27.4999H14.5V25.4999H13.5ZM27.5 23.4999V25.4999H28.5V23.4999H27.5ZM27.5 25.4999V27.4999H28.5V25.4999H27.5ZM17.5 23.4999V27.4999H18.5V23.4999H17.5ZM26 22.9999H24V23.9999H26V22.9999ZM24 25.9999H26V24.9999H24V25.9999ZM26.5 25.4999V23.4999H25.5V25.4999H26.5ZM23.5 23.4999V25.4999H24.5V23.4999H23.5ZM10.5528 25.7235L11.5528 27.7235L12.4472 27.2763L11.4472 25.2763L10.5528 25.7235ZM12.4472 27.2763L12.0207 26.4232L11.1263 26.8704L11.5528 27.7235L12.4472 27.2763ZM9.5 25.4999V27.4999H10.5V25.4999H9.5ZM10.5 27.4999V26.9999H9.5V27.4999H10.5ZM14 27.9999H16V26.9999H14V27.9999ZM16 26.9999H15.5V27.9999H16V26.9999ZM14 25.9999H15.5V24.9999H14V25.9999ZM15.5 24.9999H15V25.9999H15.5V24.9999ZM14 23.9999H16V22.9999H14V23.9999ZM16 22.9999H15.5V23.9999H16V22.9999ZM18 23.9999H20V22.9999H18V23.9999ZM20 22.9999H19.5V23.9999H20V22.9999ZM18 27.9999H20V26.9999H18V27.9999ZM20 26.9999H19.5V27.9999H20V26.9999ZM22.5 23.9999V23.4999H21.5V23.9999H22.5ZM21.5 23.4999V27.4999H22.5V23.4999H21.5ZM22.5 27.4999V26.9999H21.5V27.4999H22.5ZM23.5 25.4999V27.4999H24.5V25.4999H23.5ZM24.5 27.4999V26.9999H23.5V27.4999H24.5ZM28 23.9999H30V22.9999H28V23.9999ZM30 22.9999H29.75V23.9999H30V22.9999ZM28 25.9999H29.75V24.9999H28V25.9999ZM29.75 24.9999H29.25V25.9999H29.75V24.9999ZM28 27.9999H30V26.9999H28V27.9999ZM30 26.9999H29.75V27.9999H30V26.9999Z" fill="black"/>
</svg>
