<svg width="17" height="17" viewBox="0 0 17 17" fill="none" xmlns="http://www.w3.org/2000/svg">
      <path class="shuffle" d="M3.25001 4L3.25001 4.5L3.25001 4ZM12.2496 13L12.2496 12.5L12.2496 13ZM16.0003 13L16.3538 13.3535C16.4476 13.2598 16.5003 13.1326 16.5003 13C16.5003 12.8674 16.4476 12.7402 16.3538 12.6464L16.0003 13ZM13.3538 9.64641C13.1585 9.45115 12.8419 9.45115 12.6467 9.64641C12.4514 9.84168 12.4514 10.1583 12.6467 10.3535L13.3538 9.64641ZM12.6467 15.6464C12.4514 15.8417 12.4514 16.1583 12.6467 16.3536C12.8419 16.5488 13.1585 16.5488 13.3538 16.3536L12.6467 15.6464ZM1 4.00002L0.999976 3.50002C0.723838 3.50003 0.499993 3.72389 0.5 4.00003C0.500008 4.27617 0.723866 4.50002 1 4.50002L1 4.00002ZM3.25001 13L3.25001 12.5L3.25001 13ZM12.2496 4.00002L12.2496 4.50002L12.2496 4.00002ZM16.0003 4.00002L16.3538 4.35357C16.4476 4.2598 16.5003 4.13262 16.5003 4.00002C16.5003 3.86741 16.4476 3.74023 16.3538 3.64646L16.0003 4.00002ZM12.6467 6.64648C12.4514 6.84174 12.4514 7.15833 12.6467 7.35359C12.8419 7.54885 13.1585 7.54885 13.3538 7.35359L12.6467 6.64648ZM13.3538 0.646446C13.1585 0.451184 12.8419 0.451185 12.6467 0.646447C12.4514 0.84171 12.4514 1.15829 12.6467 1.35355L13.3538 0.646446ZM1 13V12.5C0.723862 12.5 0.500007 12.7238 0.5 13C0.499993 13.2761 0.723838 13.5 0.999976 13.5L1 13ZM3.25001 4.5C3.48572 4.5 3.75962 4.59066 4.08162 4.80372C4.40364 5.01679 4.74549 5.33375 5.10676 5.73899C5.83185 6.55235 6.57078 7.64616 7.33531 8.77961C8.08844 9.89616 8.86717 11.0523 9.64645 11.9265C10.0374 12.365 10.4444 12.7511 10.8662 13.0303C11.2881 13.3094 11.7531 13.5 12.2496 13.5L12.2496 12.5C12.0139 12.5 11.74 12.4093 11.418 12.1963C11.096 11.9832 10.7542 11.6663 10.3929 11.261C9.66781 10.4477 8.92888 9.35387 8.16435 8.22042C7.41122 7.10387 6.63249 5.94769 5.85321 5.07355C5.46229 4.63504 5.05528 4.24887 4.63342 3.96975C4.21155 3.69061 3.74656 3.50001 3.25002 3.5L3.25001 4.5ZM12.2496 13.5C13.3743 13.5 14.3119 13.5 14.9684 13.5C15.2967 13.5 15.5546 13.5 15.7305 13.5C15.8185 13.5 15.8859 13.5 15.9313 13.5C15.9541 13.5 15.9713 13.5 15.9828 13.5C15.9886 13.5 15.993 13.5 15.9959 13.5C15.9973 13.5 15.9984 13.5 15.9992 13.5C15.9995 13.5 15.9998 13.5 16 13.5C16.0001 13.5 16.0001 13.5 16.0002 13.5C16.0002 13.5 16.0002 13.5 16.0002 13.5C16.0002 13.5 16.0003 13.5 16.0003 13C16.0003 12.5 16.0003 12.5 16.0002 12.5C16.0002 12.5 16.0002 12.5 16.0002 12.5C16.0001 12.5 16.0001 12.5 16 12.5C15.9998 12.5 15.9995 12.5 15.9992 12.5C15.9984 12.5 15.9973 12.5 15.9959 12.5C15.993 12.5 15.9886 12.5 15.9829 12.5C15.9713 12.5 15.9541 12.5 15.9314 12.5C15.8859 12.5 15.8185 12.5 15.7305 12.5C15.5546 12.5 15.2967 12.5 14.9684 12.5C14.3119 12.5 13.3743 12.5 12.2496 12.5L12.2496 13.5ZM16.3538 12.6464L13.3538 9.64641L12.6467 10.3535L15.6467 13.3535L16.3538 12.6464ZM12.6467 10.3535L13.3967 11.1035L14.1038 10.3964L13.3538 9.64641L12.6467 10.3535ZM15.6467 12.6464L12.6467 15.6464L13.3538 16.3536L16.3538 13.3535L15.6467 12.6464ZM13.3538 16.3536L14.1038 15.6036L13.3967 14.8964L12.6467 15.6464L13.3538 16.3536ZM3.25002 3.5C2.49967 3.49999 1.93716 3.49999 1.56224 3.5C1.37478 3.5 1.23421 3.50001 1.14051 3.50001C1.09366 3.50001 1.05853 3.50001 1.03511 3.50001C1.0234 3.50001 1.01462 3.50001 1.00876 3.50001C1.00583 3.50001 1.00364 3.50002 1.00217 3.50002C1.00144 3.50002 1.00089 3.50002 1.00053 3.50002C1.00034 3.50002 1.00021 3.50002 1.00011 3.50002C1.00007 3.50002 1.00003 3.50002 1.00001 3.50002C0.999999 3.50002 0.999991 3.50002 0.999985 3.50002C0.999979 3.50002 0.999976 3.50002 1 4.00002C1.00002 4.50002 1.00003 4.50002 1.00003 4.50002C1.00004 4.50002 1.00005 4.50002 1.00006 4.50002C1.00008 4.50002 1.00012 4.50002 1.00016 4.50002C1.00025 4.50002 1.00039 4.50002 1.00057 4.50002C1.00094 4.50002 1.00149 4.50002 1.00222 4.50002C1.00368 4.50002 1.00588 4.50001 1.0088 4.50001C1.01466 4.50001 1.02344 4.50001 1.03515 4.50001C1.05857 4.50001 1.0937 4.50001 1.14055 4.50001C1.23424 4.50001 1.3748 4.5 1.56226 4.5C1.93717 4.49999 2.49967 4.49999 3.25001 4.5L3.25002 3.5ZM1 4.50002L1.74996 4.50001L1.74995 3.50001L0.999996 3.50002L1 4.50002ZM3.25002 13.5C3.74656 13.5 4.21155 13.3094 4.63342 13.0302C5.05528 12.7511 5.46229 12.3649 5.85321 11.9264C6.63249 11.0523 7.41122 9.89612 8.16435 8.77958C8.92888 7.64613 9.66781 6.55232 10.3929 5.73897C10.7542 5.33373 11.096 5.01678 11.418 4.80372C11.74 4.59067 12.0139 4.50001 12.2496 4.50002L12.2496 3.50002C11.7531 3.50001 11.2881 3.6906 10.8662 3.96974C10.4444 4.24885 10.0374 4.63502 9.64645 5.07352C8.86717 5.94766 8.08844 7.10384 7.33531 8.22038C6.57078 9.35383 5.83185 10.4476 5.10676 11.261C4.74549 11.6662 4.40364 11.9832 4.08162 12.1963C3.75962 12.4093 3.48572 12.5 3.25001 12.5L3.25002 13.5ZM12.2496 4.50002C13.3743 4.50002 14.3119 4.50002 14.9684 4.50002C15.2967 4.50002 15.5546 4.50002 15.7305 4.50002C15.8185 4.50002 15.8859 4.50002 15.9314 4.50002C15.9541 4.50002 15.9713 4.50002 15.9828 4.50002C15.9886 4.50002 15.993 4.50002 15.9959 4.50002C15.9973 4.50002 15.9984 4.50002 15.9992 4.50002C15.9995 4.50002 15.9998 4.50002 16 4.50002C16.0001 4.50002 16.0001 4.50002 16.0002 4.50002C16.0002 4.50002 16.0002 4.50002 16.0002 4.50002C16.0003 4.50002 16.0003 4.50002 16.0003 4.00002C16.0003 3.50002 16.0002 3.50002 16.0002 3.50002C16.0002 3.50002 16.0002 3.50002 16.0002 3.50002C16.0001 3.50002 16.0001 3.50002 16 3.50002C15.9998 3.50002 15.9995 3.50002 15.9992 3.50002C15.9984 3.50002 15.9973 3.50002 15.9959 3.50002C15.993 3.50002 15.9886 3.50002 15.9828 3.50002C15.9713 3.50002 15.9541 3.50002 15.9313 3.50002C15.8859 3.50002 15.8185 3.50002 15.7305 3.50002C15.5546 3.50002 15.2967 3.50002 14.9684 3.50002C14.3119 3.50002 13.3743 3.50002 12.2496 3.50002L12.2496 4.50002ZM15.6467 3.64646L12.6467 6.64648L13.3538 7.35359L16.3538 4.35357L15.6467 3.64646ZM13.3538 7.35359L14.1038 6.60358L13.3967 5.89647L12.6467 6.64648L13.3538 7.35359ZM16.3538 3.64646L13.3538 0.646446L12.6467 1.35355L15.6467 4.35357L16.3538 3.64646ZM12.6467 1.35355L13.3967 2.10356L14.1038 1.39645L13.3538 0.646446L12.6467 1.35355ZM3.25001 12.5C2.49967 12.5 1.93717 12.5 1.56226 12.5C1.3748 12.5 1.23424 12.5 1.14055 12.5C1.0937 12.5 1.05857 12.5 1.03515 12.5C1.02344 12.5 1.01466 12.5 1.0088 12.5C1.00588 12.5 1.00368 12.5 1.00222 12.5C1.00149 12.5 1.00094 12.5 1.00057 12.5C1.00039 12.5 1.00025 12.5 1.00016 12.5C1.00012 12.5 1.00008 12.5 1.00006 12.5C1.00005 12.5 1.00004 12.5 1.00003 12.5C1.00003 12.5 1.00002 12.5 1 13C0.999976 13.5 0.999979 13.5 0.999984 13.5C0.99999 13.5 0.999999 13.5 1.00001 13.5C1.00003 13.5 1.00007 13.5 1.00011 13.5C1.0002 13.5 1.00034 13.5 1.00053 13.5C1.00089 13.5 1.00144 13.5 1.00217 13.5C1.00364 13.5 1.00583 13.5 1.00876 13.5C1.01461 13.5 1.0234 13.5 1.03511 13.5C1.05853 13.5 1.09366 13.5 1.14051 13.5C1.23421 13.5 1.37478 13.5 1.56224 13.5C1.93716 13.5 2.49967 13.5 3.25002 13.5L3.25001 12.5ZM1 13.5H1.74996V12.5H1V13.5Z"/>
</svg>
