<svg width="18" height="19" viewBox="0 0 18 19" fill="none" xmlns="http://www.w3.org/2000/svg">
      <path class="checkbox-svg" d="M16.0714 18.3125H1.92857C0.863437 18.3125 0 17.4491 0 16.3839V2.24107C0 1.17594 0.863437 0.3125 1.92857 0.3125H16.0714C17.1366 0.3125 18 1.17594 18 2.24107V16.3839C18 17.4491 17.1366 18.3125 16.0714 18.3125ZM7.84744 14.3726L15.2403 6.97977C15.4913 6.72874 15.4913 6.32169 15.2403 6.07065L14.3312 5.16153C14.0801 4.9105 13.6731 4.91046 13.422 5.16153L7.39286 11.1906L4.57799 8.37578C4.32695 8.12474 3.9199 8.12474 3.66883 8.37578L2.75971 9.2849C2.50867 9.53593 2.50867 9.94298 2.75971 10.194L6.93828 14.3726C7.18935 14.6237 7.59636 14.6237 7.84744 14.3726V14.3726Z"/>
</svg>
