<svg width="34" height="34" viewBox="0 0 34 34" fill="none" xmlns="http://www.w3.org/2000/svg">
<path fill="white" d="M20.3077 19.1492H20.8077C20.8077 18.8731 20.5838 18.6492 20.3077 18.6492V19.1492ZM20.3077 20.2574H19.8077V20.3057L19.817 20.3532L20.3077 20.2574ZM22.0385 29.1225L21.5477 29.2183C21.5936 29.453 21.7993 29.6225 22.0385 29.6225V29.1225ZM33 20.2574L33.4912 20.3506C33.519 20.2042 33.4801 20.0532 33.3851 19.9384C33.2901 19.8237 33.1489 19.7574 33 19.7574V20.2574ZM31.7386 26.9062V27.4062C31.9788 27.4062 32.1851 27.2354 32.2298 26.9994L31.7386 26.9062ZM18 18.6492C17.7239 18.6492 17.5 18.8731 17.5 19.1492C17.5 19.4254 17.7239 19.6492 18 19.6492V18.6492ZM31.2692 29.6225C31.5454 29.6225 31.7692 29.3986 31.7692 29.1225C31.7692 28.8463 31.5454 28.6225 31.2692 28.6225V29.6225ZM23 7.91714H23.5C23.5 7.79279 23.4537 7.6729 23.37 7.58088L23 7.91714ZM16.7143 1L17.0843 0.66374L16.9355 0.5H16.7143V1ZM4.2493 11.8698V11.3698H3.7493V11.8698H4.2493ZM6.34454 11.8698H6.84454V11.3698H6.34454V11.8698ZM4.2493 13.8462H3.7493V14.3462H4.2493V13.8462ZM6.34454 13.8462V14.3462H6.84454V13.8462H6.34454ZM4.2493 16.8107V16.3107H3.7493V16.8107H4.2493ZM6.34454 16.8107H6.84454V16.3107H6.34454V16.8107ZM4.2493 18.787H3.7493V19.287H4.2493V18.787ZM6.34454 18.787V19.287H6.84454V18.787H6.34454ZM4.2493 21.7515V21.2515H3.7493V21.7515H4.2493ZM6.34454 21.7515H6.84454V21.2515H6.34454V21.7515ZM4.2493 23.7278H3.7493V24.2278H4.2493V23.7278ZM6.34454 23.7278V24.2278H6.84454V23.7278H6.34454ZM19.8077 19.1492V20.2574H20.8077V19.1492H19.8077ZM19.817 20.3532L21.5477 29.2183L22.5292 29.0266L20.7984 20.1615L19.817 20.3532ZM20.3077 20.7574H33V19.7574H20.3077V20.7574ZM32.5088 20.1642L31.2474 26.813L32.2298 26.9994L33.4912 20.3506L32.5088 20.1642ZM31.7386 26.4062H21.7423V27.4062H31.7386V26.4062ZM24.3853 31.8163C24.3853 32.198 24.0797 32.5 23.7119 32.5V33.5C24.6401 33.5 25.3853 32.7421 25.3853 31.8163H24.3853ZM23.7119 32.5C23.344 32.5 23.0385 32.198 23.0385 31.8163H22.0385C22.0385 32.7421 22.7836 33.5 23.7119 33.5V32.5ZM23.0385 31.8163C23.0385 31.4347 23.344 31.1327 23.7119 31.1327V30.1327C22.7836 30.1327 22.0385 30.8906 22.0385 31.8163H23.0385ZM23.7119 31.1327C24.0797 31.1327 24.3853 31.4347 24.3853 31.8163H25.3853C25.3853 30.8906 24.6401 30.1327 23.7119 30.1327V31.1327ZM30.7692 31.8163C30.7692 32.198 30.4637 32.5 30.0958 32.5V33.5C31.0241 33.5 31.7692 32.7421 31.7692 31.8163H30.7692ZM30.0958 32.5C29.728 32.5 29.4224 32.198 29.4224 31.8163H28.4224C28.4224 32.7421 29.1676 33.5 30.0958 33.5V32.5ZM29.4224 31.8163C29.4224 31.4347 29.728 31.1327 30.0958 31.1327V30.1327C29.1676 30.1327 28.4224 30.8906 28.4224 31.8163H29.4224ZM30.0958 31.1327C30.4637 31.1327 30.7692 31.4347 30.7692 31.8163H31.7692C31.7692 30.8906 31.0241 30.1327 30.0958 30.1327V31.1327ZM18.5769 18.6492H18V19.6492H18.5769V18.6492ZM18 19.6492H20.3077V18.6492H18V19.6492ZM22.0385 29.6225H31.2692V28.6225H22.0385V29.6225ZM31.2692 28.6225H30.2718V29.6225H31.2692V28.6225ZM0.5 1.98816V28.6686H1.5V1.98816H0.5ZM23.37 7.58088L17.0843 0.66374L16.3443 1.33626L22.63 8.2534L23.37 7.58088ZM16.7143 0.5H2.04762V1.5H16.7143V0.5ZM1.5 1.98816C1.5 1.74568 1.71725 1.5 2.04762 1.5V0.5C1.22082 0.5 0.5 1.13915 0.5 1.98816H1.5ZM2.04762 29.1567C1.71725 29.1567 1.5 28.911 1.5 28.6686H0.5C0.5 29.5176 1.22082 30.1567 2.04762 30.1567V29.1567ZM16.2143 1V5.94081H17.2143V1H16.2143ZM18.8095 8.41714H23V7.41714H18.8095V8.41714ZM16.2143 5.94081C16.2143 7.33557 17.4041 8.41714 18.8095 8.41714V7.41714C17.9006 7.41714 17.2143 6.72904 17.2143 5.94081H16.2143ZM18.3922 12.358H8.96359V13.358H18.3922V12.358ZM4.2493 12.3698H6.34454V11.3698H4.2493V12.3698ZM4.7493 13.8462V11.8698H3.7493V13.8462H4.7493ZM5.84454 11.8698V13.8462H6.84454V11.8698H5.84454ZM6.34454 13.3462H4.2493V14.3462H6.34454V13.3462ZM18.3922 17.2988H8.96359V18.2988H18.3922V17.2988ZM4.2493 17.3107H6.34454V16.3107H4.2493V17.3107ZM4.7493 18.787V16.8107H3.7493V18.787H4.7493ZM5.84454 16.8107V18.787H6.84454V16.8107H5.84454ZM6.34454 18.287H4.2493V19.287H6.34454V18.287ZM18.3922 22.2396H8.96359V23.2396H18.3922V22.2396ZM4.2493 22.2515H6.34454V21.2515H4.2493V22.2515ZM4.7493 23.7278V21.7515H3.7493V23.7278H4.7493ZM5.84454 21.7515V23.7278H6.84454V21.7515H5.84454ZM6.34454 23.2278H4.2493V24.2278H6.34454V23.2278ZM23.5 18.787V7.91714H22.5V18.787H23.5ZM2.04762 30.1567H20.9048V29.1567H2.04762V30.1567Z"/>
</svg>
